<svg width="250" height="250" viewBox="0 0 250 250" fill="none" xmlns="http://www.w3.org/2000/svg">
<path d="M72.6 73.72V112H56.28V24.4H72.6V61.36H78.72L100.92 24.4H117.72L91.32 67.6L120 112H102.6L78 73.72H72.6Z" fill="white"/>
<path d="M61.28 225V137.4H77.6V212.4H107.48V225H61.28Z" fill="white"/>
<path d="M152.96 24.4H174.2L201.08 112H185.36L177.92 87.76H149.12L141.8 112H125.96L152.96 24.4ZM163.52 39.88L152.84 75.4H174.2L163.52 39.88ZM152.96 134.4H174.2L201.08 222H185.36L177.92 197.76H149.12L141.8 222H125.96L152.96 134.4ZM163.52 149.88L152.84 185.4H174.2L163.52 149.88Z" fill="white"/>
<rect x="6" y="6" width="238" height="238" stroke="white" stroke-width="12"/>
</svg>
